<svg width="97" height="82" viewBox="0 0 97 82" fill="none" xmlns="http://www.w3.org/2000/svg">
<ellipse cx="29.2174" cy="54.4635" rx="29.2174" ry="27" fill="#C5ABFC"/>
<ellipse cx="64.458" cy="43.6154" rx="32.3478" ry="33.2308" fill="#FAC26D"/>
<path d="M27.8814 24.8339C27.9465 24.6458 27.9992 24.4578 28.0396 24.2701C28.0772 24.075 28.059 23.8745 27.9849 23.6687C27.9108 23.4629 27.8091 23.2956 27.6798 23.1669C27.5478 23.0309 27.3942 22.9272 27.219 22.8559C26.8387 22.6988 26.4272 22.6974 25.9845 22.8516C25.5418 23.0058 25.2377 23.2565 25.0721 23.6037C24.9112 23.941 24.897 24.2934 25.0293 24.6609L28.2526 33.614C28.3876 33.9889 28.6139 34.2368 28.9314 34.3578C29.2537 34.4689 29.5993 34.4602 29.9682 34.3317C30.3445 34.2007 30.6223 33.9922 30.8017 33.7064C30.9784 33.4132 30.9993 33.0792 30.8644 32.7043L30.6063 31.9876C30.474 31.6201 30.467 31.3123 30.5853 31.0643C30.7887 30.6377 31.0269 30.3769 31.2999 30.2818C31.5729 30.1867 31.8024 30.144 31.9886 30.1536C32.1747 30.1632 32.348 30.2063 32.5083 30.2828C32.8592 30.4501 33.0995 30.7139 33.2291 31.0741L33.4633 31.7246C34.0164 33.2609 33.6238 34.5227 32.2855 35.51C31.8541 35.834 31.3249 36.1052 30.6978 36.3236C30.078 36.5394 29.4982 36.6587 28.9584 36.6813C28.4159 36.6965 27.9283 36.6223 27.4958 36.4586C26.5905 36.1121 25.9567 35.4353 25.5941 34.4283L22.3866 25.5193C22.0294 24.527 22.0869 23.626 22.5593 22.8162C23.0532 21.9741 23.9162 21.3385 25.1482 20.9093C26.4172 20.4673 27.5167 20.4194 28.4467 20.7655C29.3641 21.0995 30.0014 21.7627 30.3586 22.755C30.917 24.306 30.8957 25.4922 30.2948 26.3137C30.1122 26.5676 29.8954 26.7382 29.6446 26.8256C29.4011 26.9104 29.1863 26.948 29.0002 26.9384C28.8214 26.9262 28.6519 26.8818 28.4915 26.8053C28.156 26.6575 27.9339 26.4329 27.8254 26.1315C27.7169 25.8301 27.6829 25.5855 27.7232 25.3978C27.7609 25.2027 27.8136 25.0147 27.8814 24.8339ZM42.2778 32.0544C42.0048 32.1495 41.7694 32.1529 41.5715 32.0646C41.236 31.9168 41.0312 31.7399 40.9571 31.5341C40.8803 31.321 40.8466 31.1466 40.8559 31.011C40.8626 30.868 40.893 30.7334 40.9471 30.607C41.0822 30.3365 41.2863 30.1538 41.5593 30.0587L42.6881 29.6655L39.6156 21.1315C39.3642 20.4332 39.4462 19.6808 39.8616 18.8743C39.9068 18.7923 39.9175 18.7183 39.8937 18.6521C39.8672 18.5786 39.8149 18.5141 39.7368 18.4586C39.6634 18.3932 39.5567 18.3849 39.4165 18.4337L38.177 18.8654C37.845 18.981 37.6286 19.164 37.5277 19.4142C37.3517 19.8478 37.3259 20.2373 37.4502 20.5828L37.6765 21.2112C37.8829 21.7846 37.7565 22.2753 37.2974 22.6834C37.1589 22.8061 36.9974 22.8996 36.8129 22.9638C36.6359 23.0255 36.4543 23.0515 36.2682 23.0419C36.0894 23.0297 35.9198 22.9854 35.7594 22.9089C35.4186 22.7463 35.1834 22.485 35.0537 22.1248L34.8155 21.4632C34.4927 20.5665 34.537 19.6865 34.9487 18.8235C35.3603 17.9604 36.0162 17.3721 36.9163 17.0586L42.0401 15.2739C43.7813 14.6674 45.165 14.8555 46.1913 15.8382C46.5461 16.1779 46.8267 16.6344 47.0331 17.2077L47.8707 19.5342C48.3074 20.7471 48.0088 21.7858 46.975 22.6505C47.5726 22.765 48.0215 22.9396 48.3218 23.1741C48.8491 23.5778 49.2384 24.1288 49.4898 24.8271L49.8233 25.7533C50.1488 26.6574 50.1081 27.5361 49.7012 28.3892C49.2896 29.2523 48.6337 29.8406 47.7336 30.1541L42.2778 32.0544ZM43.1633 22.787L44.4802 22.3283C45.0409 22.133 45.3404 21.7309 45.3785 21.122C45.3967 20.9419 45.3714 20.7563 45.3026 20.5652L44.4293 18.1395C44.3049 17.794 44.1161 17.5578 43.8629 17.431C43.4366 17.2155 43.0759 17.1591 42.7807 17.2619C42.493 17.3621 42.2812 17.4772 42.1454 17.6073C42.0069 17.73 41.9048 17.8731 41.8391 18.0366C41.7004 18.3662 41.6932 18.7037 41.8176 19.0492L43.1633 22.787ZM46.3511 28.3897C46.7126 28.2637 46.9525 28.0768 47.0708 27.8288C47.2837 27.3824 47.3253 26.9791 47.1957 26.6189L46.7034 25.2517C46.5738 24.8915 46.3836 24.6516 46.133 24.5321C45.692 24.3217 45.287 24.2808 44.9181 24.4093L43.8778 24.7716L45.3109 28.752L46.3511 28.3897ZM31.2186 52.3685C31.1392 52.148 30.9925 52.075 30.7785 52.1495L29.4948 52.5966C29.1628 52.7123 28.9464 52.8952 28.8455 53.1454C28.6695 53.579 28.6436 53.9685 28.768 54.314L28.9943 54.9425C29.2007 55.5158 29.0743 56.0065 28.6151 56.4146C28.4767 56.5373 28.3152 56.6308 28.1307 56.695C27.9537 56.7567 27.7721 56.7827 27.5859 56.7731C27.4072 56.7609 27.2413 56.7153 27.0883 56.6362C26.7401 56.4763 26.5012 56.2162 26.3715 55.856L26.1333 55.1944C25.8105 54.2977 25.8548 53.4177 26.2665 52.5547C26.6781 51.6916 27.334 51.1033 28.234 50.7898L33.2804 49.0321C34.5052 48.6055 35.5751 48.5679 36.4904 48.9191C37.393 49.2583 38.0242 49.9277 38.3841 50.9274L42.2148 61.5674C42.4159 62.1261 42.2932 62.6155 41.8467 63.0357C41.7156 63.1559 41.5578 63.248 41.3734 63.3123C41.1963 63.374 41.0134 63.3963 40.8246 63.3793C40.6385 63.3697 40.4652 63.3267 40.3048 63.2502C39.9593 63.0975 39.7217 62.8411 39.592 62.481L38.2622 58.7873L35.6394 59.7008L36.9692 63.3945C37.0962 63.7473 37.0982 64.0527 36.9752 64.3106C36.7718 64.7372 36.5335 64.998 36.2606 65.0931C35.9876 65.1882 35.7567 65.2273 35.5679 65.2103C35.3818 65.2007 35.2086 65.1576 35.0482 65.0811C34.7126 64.9333 34.4787 64.6756 34.3464 64.308L33.0166 60.6144L32.2198 60.8919C31.9616 60.9818 31.7335 60.9827 31.5357 60.8944C31.2022 60.7293 30.9866 60.5107 30.8886 60.2388C30.7881 59.9594 30.7956 59.6921 30.9113 59.4367C31.0316 59.1715 31.2283 58.9913 31.5013 58.8962L32.2981 58.6187L30.9444 54.8588C30.693 54.1605 30.775 53.4081 31.1904 52.6016C31.2356 52.5197 31.245 52.442 31.2186 52.3685ZM34.9209 57.7051L37.5437 56.7916L35.7772 51.885C35.6449 51.5175 35.4534 51.274 35.2028 51.1545C34.7617 50.9441 34.401 50.8877 34.1207 50.9854C33.8477 51.0805 33.6433 51.193 33.5074 51.3231C33.3763 51.4432 33.2729 51.5826 33.1972 51.7413C33.0363 52.0786 33.0207 52.4274 33.1504 52.7876L34.9209 57.7051ZM54.974 50.4723C56.2194 50.5183 57.0564 51.1367 57.4851 52.3275L57.6003 52.6473C58.2169 54.3599 59.0951 55.5886 60.235 56.3331C60.5822 56.5596 60.9025 56.7459 61.1959 56.8919C61.6422 57.1169 61.921 57.3838 62.0321 57.6926C62.138 57.9866 62.1402 58.2464 62.0387 58.472C61.8737 58.8438 61.6621 59.0747 61.4038 59.1647C61.1456 59.2546 60.8786 59.2856 60.6028 59.2575C60.3344 59.2269 59.9462 59.1057 59.4382 58.8939C58.9375 58.6794 58.4117 58.3373 57.8606 57.8675C56.5583 56.741 55.5407 55.1597 54.8076 53.1236C54.6779 52.7634 54.4865 52.5199 54.2332 52.393C53.8069 52.1775 53.4093 52.134 53.0404 52.2625L51.7346 52.7174L53.505 57.6349C53.7061 58.1936 53.5871 58.6817 53.148 59.0994C53.0095 59.2221 52.848 59.3156 52.6636 59.3798C52.4865 59.4415 52.3036 59.4638 52.1148 59.4469C51.9287 59.4372 51.7554 59.3942 51.595 59.3177C51.2495 59.1651 51.0119 58.9087 50.8822 58.5485L47.4763 49.0882C47.2328 48.412 47.2759 47.7476 47.6056 47.095L47.7333 46.8272C47.7685 46.7405 47.7742 46.664 47.7504 46.5979C47.7266 46.5317 47.6756 46.4709 47.5975 46.4154C47.5241 46.3499 47.4174 46.3416 47.2772 46.3905L46.0267 46.826C45.702 46.9391 45.4869 47.1257 45.3813 47.3858C45.2053 47.8194 45.1795 48.2089 45.3038 48.5544L45.5301 49.1829C45.7365 49.7562 45.6101 50.247 45.151 50.6551C45.0125 50.7778 44.851 50.8712 44.6665 50.9355C44.4895 50.9972 44.3079 51.0232 44.1218 51.0136C43.943 51.0014 43.7734 50.957 43.613 50.8805C43.2722 50.718 43.037 50.4566 42.9073 50.0964L42.6691 49.4349C42.3463 48.5381 42.3906 47.6582 42.8023 46.7951C43.2139 45.932 43.8698 45.3437 44.7699 45.0302L50.5135 43.0297C51.3988 42.7213 52.2701 42.7777 53.1275 43.1987C53.9748 43.615 54.5612 44.2753 54.8867 45.1794L55.6004 47.1271C56.0756 48.401 55.8668 49.516 54.974 50.4723ZM51.02 50.7327L52.3148 50.2817C52.6763 50.1558 52.9149 49.9651 53.0305 49.7098C53.2414 49.2806 53.2793 48.8786 53.1443 48.5037L52.2869 46.1221C52.1599 45.7693 51.9697 45.5295 51.7165 45.4026C51.2875 45.1797 50.8825 45.1388 50.5016 45.2798C50.1253 45.4108 49.8604 45.6437 49.7069 45.9785C49.5608 46.3106 49.5526 46.6568 49.6823 47.017L51.02 50.7327ZM71.9716 49.8007C72.051 50.0212 72.1976 50.0942 72.4116 50.0197L73.1199 49.773C73.5404 49.6265 73.9157 49.7233 74.2457 50.0633C74.3497 50.1677 74.4268 50.2898 74.4771 50.4294C74.6332 50.8631 74.5365 51.2401 74.1868 51.5604C74.0873 51.653 73.9712 51.7224 73.8384 51.7687L67.0213 54.1431C66.7631 54.2331 66.5374 54.2289 66.3443 54.1308C66.0061 53.9756 65.7881 53.762 65.6902 53.49C65.5896 53.2107 65.5971 52.9433 65.7128 52.688C65.8331 52.4227 66.0298 52.2425 66.3028 52.1474L69.1912 51.1414C69.5453 51.018 69.8171 50.8158 70.0065 50.5348C70.1959 50.2537 70.2258 49.9331 70.0961 49.5729L66.9284 40.7742C66.7961 40.4067 66.6046 40.1632 66.354 40.0436C65.9129 39.8333 65.5522 39.7769 65.2719 39.8746C64.9915 39.9722 64.776 40.0886 64.6254 40.2238C64.4796 40.3491 64.3651 40.4924 64.282 40.6537C64.0964 40.9913 64.071 41.3476 64.206 41.7225L65.8415 46.2651C65.9526 46.5739 66.1628 46.8233 66.472 47.0134C66.7786 47.1961 67.009 47.3517 67.1631 47.48C67.3146 47.6009 67.4274 47.7643 67.5015 47.9701C67.5756 48.1759 67.6085 48.3713 67.6004 48.5561C67.5895 48.7336 67.5449 48.898 67.4666 49.0494C67.2983 49.3893 67.0335 49.6222 66.672 49.7481C66.0227 49.9742 65.3981 49.865 64.798 49.4205C64.2026 48.9661 63.7078 48.1913 63.3135 47.096L61.674 42.5423C61.3167 41.55 61.3743 40.6489 61.8466 39.8392C62.3405 38.9971 63.2035 38.3615 64.4356 37.9323C65.6603 37.5057 66.7303 37.4681 67.6455 37.8194C68.5481 38.1585 69.1794 38.8279 69.5393 39.8276L72.2386 47.3252C72.4715 47.9721 72.4271 48.6328 72.1053 49.3074L71.9958 49.5565C71.9505 49.6384 71.9425 49.7198 71.9716 49.8007Z" fill="black"/>
</svg>
