<svg width="63" height="29" viewBox="0 0 63 29" fill="none" xmlns="http://www.w3.org/2000/svg">
<path opacity="0.9" fill-rule="evenodd" clip-rule="evenodd" d="M0 0H63V29H0V0ZM20.0103 24.6667V25H16.6257V24.6667L18.1641 24.0256L22.7539 12.0256H22.9847L27.318 24.4359L28.7795 24.6667V25H24.1385V24.6667L25.4206 24.4615L24.0616 20.7179H19.8821L18.6 24.0256L20.0103 24.6667ZM22.0616 14.8205L20.0103 20.3846H23.959L22.0616 14.8205ZM44.7416 23.8974L44.998 24.1795C44.4339 24.8291 43.81 25.1538 43.1262 25.1538C42.4424 25.1538 41.9467 25.0171 41.639 24.7436C41.3484 24.453 41.1604 23.9658 41.0749 23.2821L40.7672 21.1538C40.545 19.6325 39.6989 18.8718 38.2288 18.8718H36.998V24.4359L38.4595 24.6667V25H33.8185V24.6667L35.2544 24.4359V12.9231L33.8185 12.6923V12.359H38.2288C39.9382 12.359 41.1775 12.6325 41.9467 13.1795C42.7159 13.7094 43.1006 14.5214 43.1006 15.6154C43.1006 17.4274 42.0065 18.4786 39.8185 18.7692V18.8718C41.4766 19.094 42.4424 19.9915 42.7159 21.5641L42.8954 22.9231C42.9809 23.453 43.0749 23.8462 43.1775 24.1026C43.2971 24.3419 43.4937 24.4615 43.7672 24.4615C44.0578 24.4615 44.3826 24.2735 44.7416 23.8974ZM38.2288 12.7692H36.998V18.4872H38.7672C39.5365 18.4872 40.1348 18.2564 40.5621 17.7949C40.9894 17.3162 41.2031 16.6154 41.2031 15.6923V15.3846C41.2031 13.641 40.2117 12.7692 38.2288 12.7692ZM59.1603 28.2821V28.641H58.6218C56.3996 28.641 55.2885 27.735 55.2885 25.9231V25.2308C53.7671 25.0256 52.5534 24.3248 51.6475 23.1282C50.7415 21.9145 50.2885 20.3846 50.2885 18.5385C50.2885 16.6752 50.844 15.1197 51.9551 13.8718C53.0834 12.6581 54.5107 12.0427 56.2372 12.0256C57.9637 12.0256 59.3825 12.6496 60.4936 13.8974C61.6218 15.1282 62.1859 16.6667 62.1859 18.5128C62.1859 20.359 61.7244 21.8889 60.8013 23.1026C59.8953 24.2991 58.7073 25.0085 57.2372 25.2308V26.3077C57.2372 27.6239 57.8782 28.2821 59.1603 28.2821ZM52.2628 19.8974C52.2628 21.4701 52.6304 22.7094 53.3654 23.6154C54.1004 24.5043 55.0492 24.9487 56.2116 24.9487C57.391 24.9487 58.3483 24.5043 59.0834 23.6154C59.8355 22.7094 60.2116 21.4701 60.2116 19.8974V17.4615C60.2116 15.8889 59.8355 14.6581 59.0834 13.7692C58.3483 12.8632 57.391 12.4103 56.2116 12.4103C55.0492 12.4103 54.1004 12.8632 53.3654 13.7692C52.6304 14.6581 52.2628 15.8889 52.2628 17.4615V19.8974ZM1.02564 17.8935V18.2268L1.94872 19.2781C1.33333 20.0986 1.02564 20.9875 1.02564 21.9448C1.02564 23.6713 1.64957 25.073 2.89744 26.1499C4.1282 27.2097 5.73504 27.7396 7.71795 27.7396C9.68376 27.7396 11.2821 27.2183 12.5128 26.1755C13.7265 25.1328 14.3333 23.7055 14.3333 21.8935C14.3333 20.9533 14.0085 20.0815 13.359 19.2781L14.1538 18.1499V17.8166H10.1026V18.1499L12.641 19.0473C13.0513 19.4234 13.3761 19.8764 13.6154 20.4063C13.8376 20.9362 13.9487 21.4747 13.9487 22.0217C13.9487 23.1499 13.5214 24.0473 12.6667 24.714C11.7949 25.3636 10.6154 25.6884 9.12821 25.6884H6.23077C4.76068 25.6884 3.58974 25.3465 2.71795 24.6627C1.84615 23.9619 1.41026 23.0815 1.41026 22.0217C1.41026 20.9448 1.77778 20.0046 2.51282 19.2012L4.97436 18.2268V17.8935H1.02564ZM13.1795 2.51026C12.6154 1.65556 11.7521 1.2282 10.5897 1.2282C8.7265 1.2282 7.63248 2.45897 7.30769 4.92051H7.20513C6.79487 2.98889 5.82906 2.02308 4.30769 2.02308C3.28205 2.02308 2.53846 2.38205 2.07692 3.1C1.59829 3.80085 1.35897 4.98889 1.35897 6.6641V11.4846H1.69231L1.92308 10.0487H13.4359L13.6667 11.4846H14V5.92051C14 4.48462 13.7265 3.34786 13.1795 2.51026ZM7.58974 8.30513V5.92051C7.58974 5.01453 7.82906 4.31367 8.30769 3.81795C8.76923 3.32222 9.47863 3.07436 10.4359 3.07436H10.5897C11.5641 3.07436 12.3162 3.33077 12.8462 3.84359C13.359 4.33932 13.6154 5.03162 13.6154 5.92051V8.30513H7.58974ZM1.76923 8.30513V6.6641C1.76923 4.83504 2.62393 3.92906 4.33333 3.94615H4.4359C5.30769 3.94615 5.98291 4.17692 6.46154 4.63846C6.94017 5.08291 7.17949 5.72393 7.17949 6.56154V8.30513H1.76923Z" fill="#9F7A59"/>
</svg>
